<svg xmlns="http://www.w3.org/2000/svg" xmlns:xlink="http://www.w3.org/1999/xlink" viewBox="0 0 1243.76 1160"><defs><style>.cls-1{fill:none;}.cls-2{fill:url(#名称未設定グラデーション_15);}.cls-3{fill:url(#名称未設定グラデーション_15-2);}.cls-4{fill:url(#名称未設定グラデーション_15-3);}</style><linearGradient id="名称未設定グラデーション_15" x1="1078.2" y1="280.01" x2="537.51" y2="280.01" gradientUnits="userSpaceOnUse"><stop offset="0" stop-color="#008ce6"/><stop offset="0.09" stop-color="#0d99e4"/><stop offset="0.36" stop-color="#33bfde"/><stop offset="0.61" stop-color="#4edada"/><stop offset="0.83" stop-color="#5eead8"/><stop offset="1" stop-color="#64f0d7"/></linearGradient><linearGradient id="名称未設定グラデーション_15-2" x1="1518.16" y1="17000.78" x2="977.46" y2="17000.78" gradientTransform="translate(-13731.97 9979.96) rotate(-120)" xlink:href="#名称未設定グラデーション_15"/><linearGradient id="名称未設定グラデーション_15-3" x1="-13182.44" y1="9021.4" x2="-13723.13" y2="9021.4" gradientTransform="translate(1776.92 16882.22) rotate(120)" xlink:href="#名称未設定グラデーション_15"/></defs><g id="back"><rect class="cls-1" x="41.88" y="-41.88" width="1160" height="1243.76" transform="translate(1201.88 -41.88) rotate(90)"/></g><g id="logo"><path class="cls-2" d="M762.94,200c-55.66,0-99.77,9.06-132.54,27.53-40,22.54-69.4,56.65-87.5,95.3A217.82,217.82,0,0,0,529.5,360H965.73c20.86.14,26.86-2.94,36.95-19.58L1083.75,200Z"/><path class="cls-3" d="M320.41,477.84c27.83,48.2,57.73,81.87,90.11,101C450,602.22,494.29,610.63,536.8,607a216.74,216.74,0,0,0,38.89-7L357.58,222.21c-10.31-18.14-16-21.79-35.43-22.21H160Z"/><path class="cls-4" d="M782.29,722.17c27.83-48.2,42-90.94,42.43-128.55.47-45.9-14.37-88.43-38.79-123.42A217.05,217.05,0,0,0,760.44,440L542.33,817.79c-10.56,18-10.89,24.73-1.52,41.79L621.88,1000Z"/></g></svg>